<?xml version="1.0" encoding="UTF-8" standalone="no"?>
<!-- Created with Inkscape (http://www.inkscape.org/) -->

<svg
   xmlns:dc="http://purl.org/dc/elements/1.1/"
   xmlns:cc="http://creativecommons.org/ns#"
   xmlns:rdf="http://www.w3.org/1999/02/22-rdf-syntax-ns#"
   xmlns:svg="http://www.w3.org/2000/svg"
   xmlns="http://www.w3.org/2000/svg"
   xmlns:sodipodi="http://sodipodi.sourceforge.net/DTD/sodipodi-0.dtd"
   xmlns:inkscape="http://www.inkscape.org/namespaces/inkscape"
   id="svg2"
   version="1.1"
   inkscape:version="0.48.3.1 r9886"
   width="720"
   height="540"
   xml:space="preserve"
   sodipodi:docname="time_corr.pdf"><metadata
     id="metadata8"><rdf:RDF><cc:Work
         rdf:about=""><dc:format>image/svg+xml</dc:format><dc:type
           rdf:resource="http://purl.org/dc/dcmitype/StillImage" /><dc:title></dc:title></cc:Work></rdf:RDF></metadata><defs
     id="defs6"><clipPath
       clipPathUnits="userSpaceOnUse"
       id="clipPath20"><path
         d="m 106.835,72.163125 442.08,0 0,346.876875 -442.08,0 0,-346.876875 z"
         id="path22" /></clipPath><clipPath
       clipPathUnits="userSpaceOnUse"
       id="clipPath30"><path
         d="m 106.835,72.163125 442.08,0 0,346.876875 -442.08,0 0,-346.876875 z"
         id="path32" /></clipPath><clipPath
       clipPathUnits="userSpaceOnUse"
       id="clipPath40"><path
         d="m 106.835,72.163125 442.08,0 0,346.876875 -442.08,0 0,-346.876875 z"
         id="path42" /></clipPath><clipPath
       clipPathUnits="userSpaceOnUse"
       id="clipPath50"><path
         d="m 106.835,72.163125 442.08,0 0,346.876875 -442.08,0 0,-346.876875 z"
         id="path52" /></clipPath><clipPath
       clipPathUnits="userSpaceOnUse"
       id="clipPath60"><path
         d="m 106.835,72.163125 442.08,0 0,346.876875 -442.08,0 0,-346.876875 z"
         id="path62" /></clipPath><clipPath
       clipPathUnits="userSpaceOnUse"
       id="clipPath70"><path
         d="m 106.835,72.163125 442.08,0 0,346.876875 -442.08,0 0,-346.876875 z"
         id="path72" /></clipPath><clipPath
       clipPathUnits="userSpaceOnUse"
       id="clipPath80"><path
         d="m -3.25,-3.25 6.5,0 0,6.5 -6.5,0 0,-6.5 z"
         id="path82" /></clipPath><clipPath
       clipPathUnits="userSpaceOnUse"
       id="clipPath92"><path
         d="m -3.25,-3.25 6.5,0 0,6.5 -6.5,0 0,-6.5 z"
         id="path94" /></clipPath><clipPath
       clipPathUnits="userSpaceOnUse"
       id="clipPath104"><path
         d="m -3.25,-3.25 6.5,0 0,6.5 -6.5,0 0,-6.5 z"
         id="path106" /></clipPath><clipPath
       clipPathUnits="userSpaceOnUse"
       id="clipPath116"><path
         d="m -3.25,-3.25 6.5,0 0,6.5 -6.5,0 0,-6.5 z"
         id="path118" /></clipPath><clipPath
       clipPathUnits="userSpaceOnUse"
       id="clipPath128"><path
         d="m -3.25,-3.25 6.5,0 0,6.5 -6.5,0 0,-6.5 z"
         id="path130" /></clipPath><clipPath
       clipPathUnits="userSpaceOnUse"
       id="clipPath138"><path
         d="m 106.835,72.163125 442.08,0 0,346.876875 -442.08,0 0,-346.876875 z"
         id="path140" /></clipPath><clipPath
       clipPathUnits="userSpaceOnUse"
       id="clipPath162"><path
         d="m -184,-236 1472,0 0,1165 -1472,0 0,-1165 z"
         id="path164" /></clipPath><clipPath
       clipPathUnits="userSpaceOnUse"
       id="clipPath184"><path
         d="m -184,-236 1472,0 0,1165 -1472,0 0,-1165 z"
         id="path186" /></clipPath><clipPath
       clipPathUnits="userSpaceOnUse"
       id="clipPath206"><path
         d="m -184,-236 1472,0 0,1165 -1472,0 0,-1165 z"
         id="path208" /></clipPath><clipPath
       clipPathUnits="userSpaceOnUse"
       id="clipPath282"><path
         d="m -184,-236 1472,0 0,1165 -1472,0 0,-1165 z"
         id="path284" /></clipPath></defs><sodipodi:namedview
     pagecolor="#ffffff"
     bordercolor="#666666"
     borderopacity="1"
     objecttolerance="10"
     gridtolerance="10"
     guidetolerance="10"
     inkscape:pageopacity="0"
     inkscape:pageshadow="2"
     inkscape:window-width="640"
     inkscape:window-height="480"
     id="namedview4"
     showgrid="false"
     inkscape:zoom="0.43703704"
     inkscape:cx="360"
     inkscape:cy="270"
     inkscape:window-x="65"
     inkscape:window-y="24"
     inkscape:window-maximized="0"
     inkscape:current-layer="g10" /><g
     id="g10"
     inkscape:groupmode="layer"
     inkscape:label="time_corr"
     transform="matrix(1.25,0,0,-1.25,0,540)"><path
       d="M 0,0 576,0 576,432 0,432 0,0 z"
       style="fill:#ffffff;fill-opacity:1;fill-rule:nonzero;stroke:none"
       id="path12" /><path
       d="m 106.835,72.163125 442.08,0 0,346.876875 -442.08,0 0,-346.876875 z"
       style="fill:#ffffff;fill-opacity:1;fill-rule:nonzero;stroke:none"
       id="path14" /><g
       id="g16"><g
         id="g18"
         clip-path="url(#clipPath20)"><path
           d="m 178.6441,188.04101 9.74875,3.3943 8.24895,2.88817 2.99961,0.84615 2.99962,0.60576 2.24971,0.24605 2.24972,0.0336 2.24971,-0.20352 2.24971,-0.45915 2.24971,-0.72739 2.24971,-1.00352 2.24972,-1.2848 2.24971,-1.56996 2.24971,-1.85849 2.24971,-2.15026 2.24971,-2.44552 2.24972,-2.74416 2.24971,-3.04502 2.24971,-3.3449 2.99962,-4.91324 2.99961,-5.3912 3.74952,-7.28606 11.99847,-24.02552 2.24971,-3.87377 2.24971,-3.41487 1.49981,-1.9642 1.49981,-1.67395 1.4998,-1.34976 1.49981,-0.99286 1.49981,-0.60499 1.49981,-0.18847 0.7499,0.0702 0.74991,0.18383 1.4998,0.71936 1.49981,1.20421 1.49981,1.70502 1.49981,2.21813 1.49981,2.73994 1.4998,3.26691 1.49981,3.79572 1.49981,4.32329 1.49981,4.84675 2.24971,8.23639 2.24971,9.36641 2.24971,10.45363 2.24972,11.48811 2.24971,12.45983 2.99961,17.99466 2.99962,19.37186 3.74952,25.7089 9.74875,68.05061 2.24971,13.99471 2.24972,12.48942 1.4998,7.27138 1.49981,6.28218 1.49981,5.17893 1.49981,3.98055 0.7499,1.51428 0.74991,1.18764 0.7499,0.85586 0.7499,-0.85586 0.74991,-1.18764 0.7499,-1.51428 0.74991,-1.83434 1.4998,-4.59145 1.49981,-5.74369 1.49981,-6.79172 1.49981,-7.72018 2.24971,-13.04078 2.24971,-14.39776 3.74952,-25.85126 8.24895,-57.95877 3.74952,-24.39859 2.99961,-17.99466 2.99962,-16.40048 2.24971,-11.14976 2.24971,-10.09659 2.24971,-8.99399 2.24972,-7.852 1.4998,-4.5857 1.49981,-4.05984 1.49981,-3.53129 1.49981,-3.00299 1.49981,-2.47817 1.4998,-1.96026 1.49981,-1.45285 1.49981,-0.95957 1.49981,-0.48404 1.49981,-0.0297 1.4998,0.40015 1.49981,0.80267 1.49981,1.1753 1.49981,1.51604 1.49981,1.82336 1.4998,2.09638 2.24972,3.58067 2.24971,4.00137 2.99961,5.79783 5.99924,12.28378 4.49942,9.00479 2.99962,5.60297 2.99961,5.15963 2.99962,4.65653 2.24971,3.14532 2.24971,2.84431 2.24971,2.54472 2.24972,2.24829 2.24971,1.95537 2.24971,1.66578 2.24971,1.37946 2.24971,1.09679 2.24972,0.81873 2.24971,0.54743 2.24971,0.28697 2.24971,0.043 2.24971,-0.17831 2.24972,-0.37126 2.99961,-0.73691 3.74952,-1.18717 15.74799,-5.54291 0,0"
           style="fill:none;stroke:#0000ff;stroke-opacity:1;stroke-width:1;stroke-linecap:square;stroke-linejoin:round;stroke-miterlimit:10;stroke-dasharray:none"
           id="path24" /></g></g><g
       id="g26"><g
         id="g28"
         clip-path="url(#clipPath30)"><path
           d="m 178.6441,188.04859 7.49904,2.72902 6.74914,2.66293 14.24818,5.80264 2.99961,0.94288 2.99962,0.71349 2.24971,0.34373 2.24971,0.147 2.24971,-0.0791 2.24972,-0.33353 2.24971,-0.61385 2.24971,-0.91663 2.24971,-1.23823 2.24971,-1.57552 2.24972,-1.92629 2.24971,-2.28916 2.24971,-2.66323 2.24971,-3.04702 2.24971,-3.43761 2.24972,-3.82981 2.24971,-4.21573 2.99961,-6.19086 2.99962,-6.77298 3.74952,-9.10812 11.24856,-28.12354 2.24971,-4.96778 2.24971,-4.45974 1.49981,-2.62575 1.49981,-2.30285 1.49981,-1.94282 1.49981,-1.54768 1.4998,-1.12 1.49981,-0.66291 0.74991,-0.15181 0.7499,-0.0281 0.7499,0.0983 0.74991,0.22713 0.7499,0.35818 0.74991,0.4912 1.4998,1.38842 1.49981,1.93918 1.49981,2.49861 1.49981,3.06374 1.49981,3.63183 1.4998,4.20023 1.49981,4.76633 1.49981,5.32757 2.24971,9.02691 2.24971,10.23757 2.24972,11.40203 2.24971,12.51006 2.24971,13.55124 2.99962,19.54749 2.99961,21.01014 4.49943,33.47274 6.74913,50.70085 1.49981,10.54064 1.49981,7.90939 1.49981,6.9998 1.4998,5.99201 1.49981,4.90262 1.49981,3.74435 0.7499,1.42285 0.74991,1.11782 0.7499,0.81052 0.74991,0.50244 0.7499,0.19505 0.7499,-0.11016 0.74991,-0.41173 0.7499,-0.70825 0.74991,-0.99837 0.7499,-1.28085 0.7499,-1.55448 1.49981,-3.88931 1.49981,-4.85343 1.49981,-5.71649 1.49981,-6.47141 2.24971,-10.87955 2.24971,-11.95904 3.74952,-21.4128 9.74875,-56.63141 2.99962,-16.09932 2.99961,-14.99101 2.99962,-13.68027 2.24971,-9.29672 2.24971,-8.40403 2.24972,-7.46364 2.24971,-6.48815 1.49981,-3.77215 1.4998,-3.32554 1.49981,-2.87871 1.49981,-2.43457 1.49981,-1.99617 1.49981,-1.56668 1.4998,-1.14932 1.49981,-0.74723 1.49981,-0.36349 1.49981,-8.5e-4 1.49981,0.3383 1.4998,0.65192 1.49981,0.93844 1.49981,1.19669 1.49981,1.4259 2.24971,2.50402 2.24971,2.85383 2.99962,4.18202 12.74837,18.4026 2.99961,3.80246 2.99962,3.47947 2.99961,3.14011 2.99962,2.7912 2.99962,2.43071 2.24971,1.57461 2.24971,1.34862 2.24971,1.11031 2.24971,0.86289 2.24972,0.61281 2.24971,0.36909 2.24971,0.14201 2.24971,-0.059 2.99962,-0.33462 3.74952,-0.71287 5.24933,-1.29966 3.74952,-1.02472 0,0"
           style="fill:none;stroke:#008000;stroke-opacity:1;stroke-width:1;stroke-linecap:square;stroke-linejoin:round;stroke-miterlimit:10;stroke-dasharray:none"
           id="path34" /></g></g><g
       id="g36"><g
         id="g38"
         clip-path="url(#clipPath40)"><path
           d="m 178.6441,187.9823 3.74952,1.10253 4.49943,1.55047 6.74913,2.59194 6.74914,2.83601 6.74914,3.11085 11.99846,5.61982 3.74952,1.4576 2.99962,0.91071 2.24971,0.47567 2.24971,0.25395 2.24971,-0.006 2.24971,-0.30224 2.24972,-0.62953 1.4998,-0.61509 1.49981,-0.7798 1.49981,-0.95104 2.24971,-1.76096 2.24971,-2.17969 2.24972,-2.6175 2.24971,-3.07365 2.24971,-3.5461 2.24971,-4.03041 2.24971,-4.51908 2.24972,-5.00125 2.24971,-5.4631 2.99961,-7.9376 2.99962,-8.56002 4.49942,-13.588 5.99924,-18.15809 2.99961,-8.39476 2.24971,-5.71776 2.24972,-5.06406 1.4998,-2.94636 1.49981,-2.559294 1.49981,-2.138052 1.49981,-1.685598 1.49981,-1.205045 0.7499,-0.414415 0.7499,-0.285207 0.74991,-0.153411 0.7499,-0.01924 0.74991,0.117098 0.7499,0.255382 0.7499,0.395401 0.74991,0.536942 1.49981,1.503548 1.4998,2.082801 1.49981,2.666988 1.49981,3.25321 1.49981,3.83885 1.49981,4.42155 1.4998,4.99915 1.49981,5.56975 2.24971,9.40472 2.24972,10.63117 2.24971,11.81146 2.24971,12.93547 2.99962,18.87491 2.99961,20.5299 4.49943,31.52887 3.74952,25.07212 2.99961,18.49903 2.24971,12.45049 2.24972,10.86658 1.4998,6.21771 1.49981,5.30906 1.49981,4.34157 1.49981,3.33209 0.7499,1.27941 0.74991,1.01973 0.7499,0.76015 0.7499,0.50184 0.74991,0.24599 0.7499,-0.006 0.74991,-0.25384 0.7499,-0.49573 0.7499,-0.73099 0.74991,-0.95875 0.7499,-1.17827 1.49981,-2.97881 1.49981,-3.74294 1.49981,-4.42355 1.4998,-5.01789 2.24972,-8.45306 2.24971,-9.31727 2.99961,-13.32983 13.49828,-61.54939 2.99961,-12.21756 2.99962,-11.22239 2.24971,-7.66926 2.24971,-6.96566 2.24971,-6.21488 2.24972,-5.42662 1.4998,-3.16628 1.49981,-2.79918 1.49981,-2.42999 1.49981,-2.06161 1.49981,-1.69708 1.4998,-1.33956 1.49981,-0.99229 1.49981,-0.65847 1.49981,-0.34122 1.49981,-0.0434 1.4998,0.23233 1.49981,0.48392 1.49981,0.70969 1.49981,0.90854 2.24971,1.67572 2.24971,1.97018 2.99962,2.93698 5.99923,6.30658 5.24933,5.38384 3.74952,3.56229 3.74952,3.25943 2.99961,2.36052 2.99962,2.10856 2.99962,1.81741 2.24971,1.14742 2.24971,0.94728 2.24971,0.74006 2.24972,0.53351 2.24971,0.33522 2.24971,0.15178 2.99962,-0.0483 2.99961,-0.28497 2.99962,-0.46864 0,0"
           style="fill:none;stroke:#ff0000;stroke-opacity:1;stroke-width:1;stroke-linecap:square;stroke-linejoin:round;stroke-miterlimit:10;stroke-dasharray:none"
           id="path44" /></g></g><g
       id="g46"><g
         id="g48"
         clip-path="url(#clipPath50)"><path
           d="m 178.6441,187.84679 3.74952,0.44821 2.99962,0.55914 3.74952,0.94456 3.74952,1.1728 5.24933,1.90412 5.99923,2.43735 5.24933,2.38319 4.49942,2.26712 5.24933,2.90657 5.99923,3.59909 8.24895,4.96123 2.99961,1.55942 2.24971,0.98536 2.24972,0.77458 2.24971,0.51716 2.24971,0.21651 1.49981,-0.0419 1.49981,-0.20288 1.4998,-0.37322 1.49981,-0.55232 1.49981,-0.73991 1.49981,-0.93598 1.49981,-1.14082 1.4998,-1.35476 1.49981,-1.57809 1.49981,-1.81099 1.49981,-2.05319 2.24971,-3.55256 2.24971,-4.14031 2.24971,-4.74131 2.24972,-5.3413 2.24971,-5.92268 2.24971,-6.46555 2.99962,-9.35899 3.74952,-12.59387 9.74875,-33.5262 2.99961,-9.22842 2.24972,-6.20865 2.24971,-5.448777 1.49981,-3.149881 1.4998,-2.725477 1.49981,-2.27167 1.49981,-1.791616 1.49981,-1.288469 0.7499,-0.44918 0.74991,-0.316116 0.7499,-0.181001 0.7499,-0.044 0.74991,0.09471 0.7499,0.234975 0.74991,0.37665 0.7499,0.519578 1.49981,1.472213 1.49981,2.055288 1.4998,2.643115 1.49981,3.233323 1.49981,3.823594 1.49981,4.41145 1.49981,4.99558 1.4998,5.57106 2.24972,9.41746 1.4998,7.1889 2.99962,15.98593 2.99962,17.1887 4.49942,27.25309 6.74914,41.17524 2.99961,16.9635 2.24971,11.61531 2.24972,10.36044 1.4998,6.08574 1.49981,5.35421 1.49981,4.57154 1.49981,3.75121 1.49981,2.908 0.7499,1.13483 0.7499,0.92237 0.74991,0.71134 0.7499,0.50262 0.74991,0.29708 0.7499,0.0955 0.7499,-0.10126 0.74991,-0.29261 0.7499,-0.47788 0.74991,-0.65653 1.4998,-1.8201 1.49981,-2.44456 1.49981,-3.00379 1.49981,-3.49615 2.24971,-6.02259 2.24971,-6.76765 2.99962,-9.85035 4.49942,-15.77722 8.24895,-29.1816 3.74952,-12.40186 2.99961,-9.19903 2.99962,-8.38097 2.24971,-5.65803 2.24971,-5.05673 2.24971,-4.40841 1.49981,-2.56121 1.49981,-2.25114 1.49981,-1.93817 1.49981,-1.62596 1.4998,-1.31829 1.49981,-1.01897 1.49981,-0.73161 1.49981,-0.45963 1.49981,-0.206 1.4998,0.0268 1.49981,0.23703 1.49981,0.42351 2.24971,0.93217 2.24971,1.2177 2.99962,1.94029 3.74952,2.72644 11.99846,8.97166 3.74953,2.50271 3.74952,2.21506 2.99961,1.51368 2.99962,1.24964 2.99961,0.96256 2.99962,0.66334 2.99962,0.36503 2.24971,0.0868 0,0"
           style="fill:none;stroke:#00bfbf;stroke-opacity:1;stroke-width:1;stroke-linecap:square;stroke-linejoin:round;stroke-miterlimit:10;stroke-dasharray:none"
           id="path54" /></g></g><g
       id="g56"><g
         id="g58"
         clip-path="url(#clipPath60)"><path
           d="m 178.6441,187.74237 5.99923,-0.2399 3.74952,0.0686 2.99962,0.24077 2.99962,0.43108 2.99961,0.62299 3.74952,1.02254 3.74952,1.24619 4.49943,1.7296 4.49942,1.95584 4.49943,2.20167 3.74952,2.06096 3.74952,2.30296 3.74952,2.56693 3.74952,2.8294 4.49942,3.68464 8.99885,7.5359 2.99961,2.19076 2.24972,1.40744 2.24971,1.14639 2.24971,0.83598 1.49981,0.36241 1.49981,0.19185 1.4998,0.009 1.49981,-0.18473 1.49981,-0.39043 1.49981,-0.60791 1.49981,-0.83748 1.4998,-1.07947 1.49981,-1.3341 1.49981,-1.6013 1.49981,-1.88058 1.49981,-2.17095 1.4998,-2.47083 1.49981,-2.77803 2.24971,-4.752 2.24972,-5.45305 2.24971,-6.13412 2.24971,-6.7726 2.99962,-9.90684 2.99961,-10.7086 4.49943,-16.96051 5.99923,-22.57855 2.99961,-10.49467 2.24972,-7.24283 2.24971,-6.55428 2.24971,-5.741327 1.49981,-3.319928 1.49981,-2.87854 1.4998,-2.410146 1.49981,-1.917709 1.49981,-1.404169 0.7499,-0.503681 0.74991,-0.368795 0.7499,-0.231849 0.74991,-0.09303 0.7499,0.04692 0.7499,0.187739 0.74991,0.331059 0.7499,0.475078 0.74991,0.619605 0.7499,0.764547 1.49981,2.826866 1.49981,3.366472 1.4998,3.890831 1.49981,4.394787 2.24971,7.488983 2.24972,8.48478 2.24971,9.38005 2.99961,13.70704 2.99962,14.81434 4.49942,23.59187 7.49904,39.66066 2.99962,14.55469 2.24971,9.91517 2.24971,8.81046 1.49981,5.16393 1.49981,4.54129 1.49981,3.88344 1.49981,3.20228 1.4998,2.5103 1.49981,1.82012 0.74991,0.65511 0.7499,0.48862 0.7499,0.32555 0.74991,0.16649 0.7499,0.012 0.74991,-0.13752 0.7499,-0.2816 0.7499,-0.41992 1.49981,-1.23047 1.49981,-1.70909 1.49981,-2.13604 1.49981,-2.51177 2.24971,-4.36498 2.24971,-4.94647 2.99962,-7.26915 3.74952,-9.80046 12.74836,-34.15679 2.99962,-7.19972 2.24971,-4.96374 2.24971,-4.51857 2.24972,-4.01881 2.24971,-3.4769 1.49981,-2.00293 1.4998,-1.74607 1.49981,-1.48908 1.49981,-1.23543 1.49981,-0.98855 1.49981,-0.75153 1.4998,-0.52716 1.49981,-0.31781 1.49981,-0.12532 1.49981,0.049 2.24971,0.35885 2.24971,0.64456 2.24971,0.86969 2.99962,1.41668 3.74952,2.03482 12.74837,7.20229 3.74952,1.79559 3.74952,1.52714 2.99962,0.99155 2.24971,0.59261 0,0"
           style="fill:none;stroke:#bf00bf;stroke-opacity:1;stroke-width:1;stroke-linecap:square;stroke-linejoin:round;stroke-miterlimit:10;stroke-dasharray:none"
           id="path64" /></g></g><g
       id="g66"><g
         id="g68"
         clip-path="url(#clipPath70)"><g
           id="g74"
           transform="translate(327.875,380.49812)"><g
             id="g76"><g
               id="g78"
               clip-path="url(#clipPath80)"><path
                 d="m 0,-3 c 0.7956093,0 1.5587396,0.3160989 2.1213203,0.8786797 C 2.6839011,-1.5587396 3,-0.7956093 3,0 3,0.7956093 2.6839011,1.5587396 2.1213203,2.1213203 1.5587396,2.6839011 0.7956093,3 0,3 -0.7956093,3 -1.5587396,2.6839011 -2.1213203,2.1213203 -2.6839011,1.5587396 -3,0.7956093 -3,0 -3,-0.7956093 -2.6839011,-1.5587396 -2.1213203,-2.1213203 -1.5587396,-2.6839011 -0.7956093,-3 0,-3 z"
                 style="fill:#ff0000;fill-opacity:1;fill-rule:nonzero;stroke:#000000;stroke-opacity:1;stroke-width:0.5;stroke-linecap:butt;stroke-linejoin:round;stroke-miterlimit:10;stroke-dasharray:none"
                 id="path84" /></g></g><g
             id="g86"
             transform="translate(11.24856,-21.691255)"><g
               id="g88"><g
                 id="g90"
                 clip-path="url(#clipPath92)"><path
                   d="m 0,-3 c 0.7956093,0 1.5587396,0.3160989 2.1213203,0.8786797 C 2.6839011,-1.5587396 3,-0.7956093 3,0 3,0.7956093 2.6839011,1.5587396 2.1213203,2.1213203 1.5587396,2.6839011 0.7956093,3 0,3 -0.7956093,3 -1.5587396,2.6839011 -2.1213203,2.1213203 -2.6839011,1.5587396 -3,0.7956093 -3,0 -3,-0.7956093 -2.6839011,-1.5587396 -2.1213203,-2.1213203 -1.5587396,-2.6839011 -0.7956093,-3 0,-3 z"
                   style="fill:#ff0000;fill-opacity:1;fill-rule:nonzero;stroke:#000000;stroke-opacity:1;stroke-width:0.5;stroke-linecap:butt;stroke-linejoin:round;stroke-miterlimit:10;stroke-dasharray:none"
                   id="path96" /></g></g><g
               id="g98"
               transform="translate(12.748368,-29.964787)"><g
                 id="g100"><g
                   id="g102"
                   clip-path="url(#clipPath104)"><path
                     d="m 0,-3 c 0.7956093,0 1.5587396,0.3160989 2.1213203,0.8786797 C 2.6839011,-1.5587396 3,-0.7956093 3,0 3,0.7956093 2.6839011,1.5587396 2.1213203,2.1213203 1.5587396,2.6839011 0.7956093,3 0,3 -0.7956093,3 -1.5587396,2.6839011 -2.1213203,2.1213203 -2.6839011,1.5587396 -3,0.7956093 -3,0 -3,-0.7956093 -2.6839011,-1.5587396 -2.1213203,-2.1213203 -1.5587396,-2.6839011 -0.7956093,-3 0,-3 z"
                     style="fill:#ff0000;fill-opacity:1;fill-rule:nonzero;stroke:#000000;stroke-opacity:1;stroke-width:0.5;stroke-linecap:butt;stroke-linejoin:round;stroke-miterlimit:10;stroke-dasharray:none"
                     id="path108" /></g></g><g
                 id="g110"
                 transform="translate(13.498272,-29.974398)"><g
                   id="g112"><g
                     id="g114"
                     clip-path="url(#clipPath116)"><path
                       d="m 0,-3 c 0.7956093,0 1.5587396,0.3160989 2.1213203,0.8786797 C 2.6839011,-1.5587396 3,-0.7956093 3,0 3,0.7956093 2.6839011,1.5587396 2.1213203,2.1213203 1.5587396,2.6839011 0.7956093,3 0,3 -0.7956093,3 -1.5587396,2.6839011 -2.1213203,2.1213203 -2.6839011,1.5587396 -3,0.7956093 -3,0 -3,-0.7956093 -2.6839011,-1.5587396 -2.1213203,-2.1213203 -1.5587396,-2.6839011 -0.7956093,-3 0,-3 z"
                       style="fill:#ff0000;fill-opacity:1;fill-rule:nonzero;stroke:#000000;stroke-opacity:1;stroke-width:0.5;stroke-linecap:butt;stroke-linejoin:round;stroke-miterlimit:10;stroke-dasharray:none"
                       id="path120" /></g></g><g
                   id="g122"
                   transform="translate(13.498272,-26.402932)"><g
                     id="g124"><g
                       id="g126"
                       clip-path="url(#clipPath128)"><path
                         d="m 0,-3 c 0.7956093,0 1.5587396,0.3160989 2.1213203,0.8786797 C 2.6839011,-1.5587396 3,-0.7956093 3,0 3,0.7956093 2.6839011,1.5587396 2.1213203,2.1213203 1.5587396,2.6839011 0.7956093,3 0,3 -0.7956093,3 -1.5587396,2.6839011 -2.1213203,2.1213203 -2.6839011,1.5587396 -3,0.7956093 -3,0 -3,-0.7956093 -2.6839011,-1.5587396 -2.1213203,-2.1213203 -1.5587396,-2.6839011 -0.7956093,-3 0,-3 z"
                         style="fill:#ff0000;fill-opacity:1;fill-rule:nonzero;stroke:#000000;stroke-opacity:1;stroke-width:0.5;stroke-linecap:butt;stroke-linejoin:round;stroke-miterlimit:10;stroke-dasharray:none"
                         id="path132" /></g></g></g></g></g></g></g></g></g><g
       id="g134"><g
         id="g136"
         clip-path="url(#clipPath138)"><path
           d="m 327.875,380.49812 0.7499,-2.10517 0.74991,-2.08217 0.7499,-2.05943 0.74991,-2.03693 0.7499,-2.01468 0.7499,-1.99267 0.74991,-1.9709 0.7499,-1.94937 0.74991,-1.92808 0.7499,-1.90701 0.7499,-1.88619 0.74991,-1.86557 0.7499,-1.8452 0.74991,-1.82504 0.7499,-1.80511 0.7499,-1.78538 0.74991,-1.76588 0.7499,-1.74659 0.74991,-1.72751 0.7499,-1.70864 0.7499,-1.68998 0.74991,-1.67151 0.7499,-1.65325 0.74991,-1.63519 0.7499,-1.61733 0.7499,-1.59967 0.74991,-1.58218 0.7499,-1.56491 0.74991,-1.5478 0.7499,-1.5309 0.7499,-1.51418 0.74991,-1.49763 0.7499,-1.48128 0.74991,-1.46509 0.7499,-1.44909 0.7499,-1.43326 0.74991,-1.4176 0.7499,-1.40211 0.74991,-1.3868 0.7499,-1.37165 0.7499,-1.35667 0.74991,-1.34184 0.7499,-1.32719 0.74991,-1.31269 0.7499,-1.29834 0.7499,-1.28417 0.74991,-1.27014 0.7499,-1.25626 0.74991,-1.24254 0.7499,-1.22896 0.7499,-1.21554 0.74991,-1.20226 0.7499,-1.18913 0.74991,-1.17613 0.7499,-1.16329 0.7499,-1.15058 0.74991,-1.13802 0.7499,-1.12558 0.74991,-1.11328 0.7499,-1.10112 0.7499,-1.0891 0.74991,-1.07719 0.7499,-1.06543 0.74991,-1.05379 0.7499,-1.04228 0.7499,-1.03089 0.74991,-1.01963 0.7499,-1.0085 0.74991,-0.99747 0.7499,-0.98658 0.7499,-0.9758 0.74991,-0.96515 0.7499,-0.9546 0.74991,-0.94417 0.7499,-0.93385 0.7499,-0.92366 0.74991,-0.91356 0.7499,-0.90359 0.74991,-0.89371 0.7499,-0.88395 0.7499,-0.8743 0.74991,-0.86474 0.7499,-0.8553 0.74991,-0.84595 0.7499,-0.83672 0.7499,-0.82757 0.74991,-0.81853 0.7499,-0.80959 0.74991,-0.80075 0.7499,-0.792 0.7499,-0.78334 0.74991,-0.77479 0.7499,-0.76633 0.74991,-0.75796 0.7499,-0.74967 0.7499,-0.74149 0.74991,-0.73338 0.7499,-0.72537 0.74991,-0.71745"
           style="fill:none;stroke:#0000ff;stroke-opacity:1;stroke-width:2;stroke-linecap:square;stroke-linejoin:round;stroke-miterlimit:10;stroke-dasharray:none"
           id="path142" /></g></g><g
       id="g144"><path
         d="m 106.835,72.163125 0,4"
         style="fill:#000000;fill-opacity:1;fill-rule:nonzero;stroke:#000000;stroke-opacity:1;stroke-width:0.5;stroke-linecap:butt;stroke-linejoin:round;stroke-miterlimit:10;stroke-dasharray:none"
         id="path146" /><path
         d="m 106.835,419.04 0,-4"
         style="fill:#000000;fill-opacity:1;fill-rule:nonzero;stroke:#000000;stroke-opacity:1;stroke-width:0.5;stroke-linecap:butt;stroke-linejoin:round;stroke-miterlimit:10;stroke-dasharray:none"
         id="path148" /><g
         id="g150"
         transform="translate(82.608437,49.163125)"><text
           transform="matrix(1,0,0,-1,20.947266,0)"
           id="text152"><tspan
             style="fill:#000000;fill-opacity:1;fill-rule:nonzero;stroke:none;font-family:Bitstream Charter;font-variant:normal;font-weight:normal;font-size:25;writing-mode:lr;-inkscape-font-specification:BitstreamVeraSans-Roman"
             x="0 15.9"
             y="0"
             sodipodi:role="line"
             id="tspan154">30</tspan></text>
<g
           id="g156"
           transform="scale(0.025,0.025)"><g
             id="g158"><g
               id="g160"
               clip-path="url(#clipPath162)"><path
                 d="m 106,355 626,0 0,-83 -626,0 0,83"
                 style="fill:#000000;fill-opacity:1;fill-rule:nonzero;stroke:none"
                 id="path166" /></g></g></g></g><path
         d="m 180.515,72.163125 0,4"
         style="fill:#000000;fill-opacity:1;fill-rule:nonzero;stroke:#000000;stroke-opacity:1;stroke-width:0.5;stroke-linecap:butt;stroke-linejoin:round;stroke-miterlimit:10;stroke-dasharray:none"
         id="path168" /><path
         d="m 180.515,419.04 0,-4"
         style="fill:#000000;fill-opacity:1;fill-rule:nonzero;stroke:#000000;stroke-opacity:1;stroke-width:0.5;stroke-linecap:butt;stroke-linejoin:round;stroke-miterlimit:10;stroke-dasharray:none"
         id="path170" /><g
         id="g172"
         transform="translate(156.28844,49.163125)"><text
           transform="matrix(1,0,0,-1,20.947266,0)"
           id="text174"><tspan
             style="fill:#000000;fill-opacity:1;fill-rule:nonzero;stroke:none;font-family:Bitstream Charter;font-variant:normal;font-weight:normal;font-size:25;writing-mode:lr;-inkscape-font-specification:BitstreamVeraSans-Roman"
             x="0 15.9"
             y="0"
             sodipodi:role="line"
             id="tspan176">20</tspan></text>
<g
           id="g178"
           transform="scale(0.025,0.025)"><g
             id="g180"><g
               id="g182"
               clip-path="url(#clipPath184)"><path
                 d="m 106,355 626,0 0,-83 -626,0 0,83"
                 style="fill:#000000;fill-opacity:1;fill-rule:nonzero;stroke:none"
                 id="path188" /></g></g></g></g><path
         d="m 254.195,72.163125 0,4"
         style="fill:#000000;fill-opacity:1;fill-rule:nonzero;stroke:#000000;stroke-opacity:1;stroke-width:0.5;stroke-linecap:butt;stroke-linejoin:round;stroke-miterlimit:10;stroke-dasharray:none"
         id="path190" /><path
         d="m 254.195,419.04 0,-4"
         style="fill:#000000;fill-opacity:1;fill-rule:nonzero;stroke:#000000;stroke-opacity:1;stroke-width:0.5;stroke-linecap:butt;stroke-linejoin:round;stroke-miterlimit:10;stroke-dasharray:none"
         id="path192" /><g
         id="g194"
         transform="translate(229.96844,49.163125)"><text
           transform="matrix(1,0,0,-1,20.947266,0)"
           id="text196"><tspan
             style="fill:#000000;fill-opacity:1;fill-rule:nonzero;stroke:none;font-family:Bitstream Charter;font-variant:normal;font-weight:normal;font-size:25;writing-mode:lr;-inkscape-font-specification:BitstreamVeraSans-Roman"
             x="0 15.9"
             y="0"
             sodipodi:role="line"
             id="tspan198">10</tspan></text>
<g
           id="g200"
           transform="scale(0.025,0.025)"><g
             id="g202"><g
               id="g204"
               clip-path="url(#clipPath206)"><path
                 d="m 106,355 626,0 0,-83 -626,0 0,83"
                 style="fill:#000000;fill-opacity:1;fill-rule:nonzero;stroke:none"
                 id="path210" /></g></g></g></g><path
         d="m 327.875,72.163125 0,4"
         style="fill:#000000;fill-opacity:1;fill-rule:nonzero;stroke:#000000;stroke-opacity:1;stroke-width:0.5;stroke-linecap:butt;stroke-linejoin:round;stroke-miterlimit:10;stroke-dasharray:none"
         id="path212" /><path
         d="m 327.875,419.04 0,-4"
         style="fill:#000000;fill-opacity:1;fill-rule:nonzero;stroke:#000000;stroke-opacity:1;stroke-width:0.5;stroke-linecap:butt;stroke-linejoin:round;stroke-miterlimit:10;stroke-dasharray:none"
         id="path214" /><text
         transform="matrix(1,0,0,-1,321.57812,49.163125)"
         id="text216"><tspan
           style="fill:#000000;fill-opacity:1;fill-rule:nonzero;stroke:none;font-family:Bitstream Charter;font-variant:normal;font-weight:normal;font-size:25;writing-mode:lr;-inkscape-font-specification:BitstreamVeraSans-Roman"
           x="0"
           y="0"
           id="tspan218">0</tspan></text>
<path
         d="m 401.555,72.163125 0,4"
         style="fill:#000000;fill-opacity:1;fill-rule:nonzero;stroke:#000000;stroke-opacity:1;stroke-width:0.5;stroke-linecap:butt;stroke-linejoin:round;stroke-miterlimit:10;stroke-dasharray:none"
         id="path220" /><path
         d="m 401.555,419.04 0,-4"
         style="fill:#000000;fill-opacity:1;fill-rule:nonzero;stroke:#000000;stroke-opacity:1;stroke-width:0.5;stroke-linecap:butt;stroke-linejoin:round;stroke-miterlimit:10;stroke-dasharray:none"
         id="path222" /><text
         transform="matrix(1,0,0,-1,387.85187,49.163125)"
         id="text224"><tspan
           style="fill:#000000;fill-opacity:1;fill-rule:nonzero;stroke:none;font-family:Bitstream Charter;font-variant:normal;font-weight:normal;font-size:25;writing-mode:lr;-inkscape-font-specification:BitstreamVeraSans-Roman"
           x="0 15.9"
           y="0"
           sodipodi:role="line"
           id="tspan226">10</tspan></text>
<path
         d="m 475.235,72.163125 0,4"
         style="fill:#000000;fill-opacity:1;fill-rule:nonzero;stroke:#000000;stroke-opacity:1;stroke-width:0.5;stroke-linecap:butt;stroke-linejoin:round;stroke-miterlimit:10;stroke-dasharray:none"
         id="path228" /><path
         d="m 475.235,419.04 0,-4"
         style="fill:#000000;fill-opacity:1;fill-rule:nonzero;stroke:#000000;stroke-opacity:1;stroke-width:0.5;stroke-linecap:butt;stroke-linejoin:round;stroke-miterlimit:10;stroke-dasharray:none"
         id="path230" /><text
         transform="matrix(1,0,0,-1,461.07094,49.163125)"
         id="text232"><tspan
           style="fill:#000000;fill-opacity:1;fill-rule:nonzero;stroke:none;font-family:Bitstream Charter;font-variant:normal;font-weight:normal;font-size:25;writing-mode:lr;-inkscape-font-specification:BitstreamVeraSans-Roman"
           x="0 15.9"
           y="0"
           sodipodi:role="line"
           id="tspan234">20</tspan></text>
<path
         d="m 548.915,72.163125 0,4"
         style="fill:#000000;fill-opacity:1;fill-rule:nonzero;stroke:#000000;stroke-opacity:1;stroke-width:0.5;stroke-linecap:butt;stroke-linejoin:round;stroke-miterlimit:10;stroke-dasharray:none"
         id="path236" /><path
         d="m 548.915,419.04 0,-4"
         style="fill:#000000;fill-opacity:1;fill-rule:nonzero;stroke:#000000;stroke-opacity:1;stroke-width:0.5;stroke-linecap:butt;stroke-linejoin:round;stroke-miterlimit:10;stroke-dasharray:none"
         id="path238" /><text
         transform="matrix(1,0,0,-1,534.79,49.163125)"
         id="text240"><tspan
           style="fill:#000000;fill-opacity:1;fill-rule:nonzero;stroke:none;font-family:Bitstream Charter;font-variant:normal;font-weight:normal;font-size:25;writing-mode:lr;-inkscape-font-specification:BitstreamVeraSans-Roman"
           x="0 15.9"
           y="0"
           sodipodi:role="line"
           id="tspan242">30</tspan></text>
<g
         id="g244"
         transform="translate(289.375,19.96)"><text
           transform="matrix(1,0,0,-1,0,0.25)"
           id="text246"><tspan
             style="fill:#000000;fill-opacity:1;fill-rule:nonzero;stroke:none;font-family:Cmr10;font-variant:normal;font-weight:normal;font-size:25;writing-mode:lr;-inkscape-font-specification:Cmr10"
             x="0"
             y="0"
             id="tspan248">∆</tspan></text>
<text
           transform="matrix(1,0,0,-1,20.825195,0.25)"
           id="text250"><tspan
             style="fill:#000000;fill-opacity:1;fill-rule:nonzero;stroke:none;font-family:Cmmi10;font-variant:normal;font-weight:normal;font-size:25;writing-mode:lr;-inkscape-font-specification:Cmmi10"
             x="0"
             y="0"
             id="tspan252">t</tspan></text>
<text
           transform="matrix(1,0,0,-1,29.846191,0.25)"
           id="text254"><tspan
             style="fill:#000000;fill-opacity:1;fill-rule:nonzero;stroke:none;font-family:Cmr10;font-variant:normal;font-weight:normal;font-size:25;writing-mode:lr;-inkscape-font-specification:Cmr10"
             x="0"
             y="0"
             id="tspan256">(</tspan></text>
<text
           transform="matrix(1,0,0,-1,39.550781,0.25)"
           id="text258"><tspan
             style="fill:#000000;fill-opacity:1;fill-rule:nonzero;stroke:none;font-family:Cmmi10;font-variant:normal;font-weight:normal;font-size:25;writing-mode:lr;-inkscape-font-specification:Cmmi10"
             x="0 15.05126953"
             y="0"
             sodipodi:role="line"
             id="tspan260">µs</tspan></text>
<text
           transform="matrix(1,0,0,-1,66.296387,0.25)"
           id="text262"><tspan
             style="fill:#000000;fill-opacity:1;fill-rule:nonzero;stroke:none;font-family:Cmr10;font-variant:normal;font-weight:normal;font-size:25;writing-mode:lr;-inkscape-font-specification:Cmr10"
             x="0"
             y="0"
             id="tspan264">)</tspan></text>
</g><path
         d="m 106.835,91.434063 4,0"
         style="fill:#000000;fill-opacity:1;fill-rule:nonzero;stroke:#000000;stroke-opacity:1;stroke-width:0.5;stroke-linecap:butt;stroke-linejoin:round;stroke-miterlimit:10;stroke-dasharray:none"
         id="path266" /><path
         d="m 548.915,91.434063 -4,0"
         style="fill:#000000;fill-opacity:1;fill-rule:nonzero;stroke:#000000;stroke-opacity:1;stroke-width:0.5;stroke-linecap:butt;stroke-linejoin:round;stroke-miterlimit:10;stroke-dasharray:none"
         id="path268" /><g
         id="g270"
         transform="translate(46.96,84.535625)"><text
           transform="matrix(1,0,0,-1,20.947266,0)"
           id="text272"><tspan
             style="fill:#000000;fill-opacity:1;fill-rule:nonzero;stroke:none;font-family:Bitstream Charter;font-variant:normal;font-weight:normal;font-size:25;writing-mode:lr;-inkscape-font-specification:BitstreamVeraSans-Roman"
             x="0 15.9 23.85"
             y="0"
             sodipodi:role="line"
             id="tspan274">0.5</tspan></text>
<g
           id="g276"
           transform="scale(0.025,0.025)"><g
             id="g278"><g
               id="g280"
               clip-path="url(#clipPath282)"><path
                 d="m 106,355 626,0 0,-83 -626,0 0,83"
                 style="fill:#000000;fill-opacity:1;fill-rule:nonzero;stroke:none"
                 id="path286" /></g></g></g></g><path
         d="m 106.835,187.78875 4,0"
         style="fill:#000000;fill-opacity:1;fill-rule:nonzero;stroke:#000000;stroke-opacity:1;stroke-width:0.5;stroke-linecap:butt;stroke-linejoin:round;stroke-miterlimit:10;stroke-dasharray:none"
         id="path288" /><path
         d="m 548.915,187.78875 -4,0"
         style="fill:#000000;fill-opacity:1;fill-rule:nonzero;stroke:#000000;stroke-opacity:1;stroke-width:0.5;stroke-linecap:butt;stroke-linejoin:round;stroke-miterlimit:10;stroke-dasharray:none"
         id="path290" /><text
         transform="matrix(1,0,0,-1,66.381875,180.89031)"
         id="text292"><tspan
           style="fill:#000000;fill-opacity:1;fill-rule:nonzero;stroke:none;font-family:Bitstream Charter;font-variant:normal;font-weight:normal;font-size:25;writing-mode:lr;-inkscape-font-specification:BitstreamVeraSans-Roman"
           x="0 15.9 23.85"
           y="0"
           sodipodi:role="line"
           id="tspan294">0.0</tspan></text>
<path
         d="m 106.835,284.14344 4,0"
         style="fill:#000000;fill-opacity:1;fill-rule:nonzero;stroke:#000000;stroke-opacity:1;stroke-width:0.5;stroke-linecap:butt;stroke-linejoin:round;stroke-miterlimit:10;stroke-dasharray:none"
         id="path296" /><path
         d="m 548.915,284.14344 -4,0"
         style="fill:#000000;fill-opacity:1;fill-rule:nonzero;stroke:#000000;stroke-opacity:1;stroke-width:0.5;stroke-linecap:butt;stroke-linejoin:round;stroke-miterlimit:10;stroke-dasharray:none"
         id="path298" /><text
         transform="matrix(1,0,0,-1,66.913125,277.245)"
         id="text300"><tspan
           style="fill:#000000;fill-opacity:1;fill-rule:nonzero;stroke:none;font-family:Bitstream Charter;font-variant:normal;font-weight:normal;font-size:25;writing-mode:lr;-inkscape-font-specification:BitstreamVeraSans-Roman"
           x="0 15.9 23.85"
           y="0"
           sodipodi:role="line"
           id="tspan302">0.5</tspan></text>
<path
         d="m 106.835,380.49812 4,0"
         style="fill:#000000;fill-opacity:1;fill-rule:nonzero;stroke:#000000;stroke-opacity:1;stroke-width:0.5;stroke-linecap:butt;stroke-linejoin:round;stroke-miterlimit:10;stroke-dasharray:none"
         id="path304" /><path
         d="m 548.915,380.49812 -4,0"
         style="fill:#000000;fill-opacity:1;fill-rule:nonzero;stroke:#000000;stroke-opacity:1;stroke-width:0.5;stroke-linecap:butt;stroke-linejoin:round;stroke-miterlimit:10;stroke-dasharray:none"
         id="path306" /><text
         transform="matrix(1,0,0,-1,67.475625,373.59969)"
         id="text308"><tspan
           style="fill:#000000;fill-opacity:1;fill-rule:nonzero;stroke:none;font-family:Bitstream Charter;font-variant:normal;font-weight:normal;font-size:25;writing-mode:lr;-inkscape-font-specification:BitstreamVeraSans-Roman"
           x="0 15.9 23.85"
           y="0"
           sodipodi:role="line"
           id="tspan310">1.0</tspan></text>
<g
         id="g312"
         transform="matrix(0,1,-1,0,31.96,200.10156)"><text
           transform="matrix(1,0,0,-1,0,0.25)"
           id="text314"><tspan
             style="fill:#000000;fill-opacity:1;fill-rule:nonzero;stroke:none;font-family:Cmmi10;font-variant:normal;font-weight:normal;font-size:25;writing-mode:lr;-inkscape-font-specification:Cmmi10"
             x="0"
             y="0"
             id="tspan316">C</tspan></text>
<text
           transform="matrix(1,0,0,-1,17.84668,-6.1273438)"
           id="text318"><tspan
             style="fill:#000000;fill-opacity:1;fill-rule:nonzero;stroke:none;font-family:Cmr10;font-variant:normal;font-weight:normal;font-size:17.5;writing-mode:lr;-inkscape-font-specification:Cmr10"
             x="0"
             y="0"
             id="tspan320">∆</tspan></text>
<text
           transform="matrix(1,0,0,-1,32.424316,-6.1273438)"
           id="text322"><tspan
             style="fill:#000000;fill-opacity:1;fill-rule:nonzero;stroke:none;font-family:Cmmi10;font-variant:normal;font-weight:normal;font-size:17.5;writing-mode:lr;-inkscape-font-specification:Cmmi10"
             x="0"
             y="0"
             id="tspan324">y</tspan></text>
<text
           transform="matrix(1,0,0,-1,41.003418,0.25)"
           id="text326"><tspan
             style="fill:#000000;fill-opacity:1;fill-rule:nonzero;stroke:none;font-family:Cmr10;font-variant:normal;font-weight:normal;font-size:25;writing-mode:lr;-inkscape-font-specification:Cmr10"
             x="0 9.70458984"
             y="0"
             sodipodi:role="line"
             id="tspan328">(∆</tspan></text>
<text
           transform="matrix(1,0,0,-1,71.533203,0.25)"
           id="text330"><tspan
             style="fill:#000000;fill-opacity:1;fill-rule:nonzero;stroke:none;font-family:Cmmi10;font-variant:normal;font-weight:normal;font-size:25;writing-mode:lr;-inkscape-font-specification:Cmmi10"
             x="0"
             y="0"
             id="tspan332">t</tspan></text>
<text
           transform="matrix(1,0,0,-1,80.554199,0.25)"
           id="text334"><tspan
             style="fill:#000000;fill-opacity:1;fill-rule:nonzero;stroke:none;font-family:Cmr10;font-variant:normal;font-weight:normal;font-size:25;writing-mode:lr;-inkscape-font-specification:Cmr10"
             x="0"
             y="0"
             id="tspan336">)</tspan></text>
</g><path
         d="m 106.835,419.04 442.08,0"
         style="fill:none;stroke:#000000;stroke-opacity:1;stroke-width:1;stroke-linecap:butt;stroke-linejoin:round;stroke-miterlimit:10;stroke-dasharray:none"
         id="path338" /><path
         d="m 548.915,72.163125 0,346.876875"
         style="fill:none;stroke:#000000;stroke-opacity:1;stroke-width:1;stroke-linecap:butt;stroke-linejoin:round;stroke-miterlimit:10;stroke-dasharray:none"
         id="path340" /><path
         d="m 106.835,72.163125 442.08,0"
         style="fill:none;stroke:#000000;stroke-opacity:1;stroke-width:1;stroke-linecap:butt;stroke-linejoin:round;stroke-miterlimit:10;stroke-dasharray:none"
         id="path342" /><path
         d="m 106.835,72.163125 0,346.876875"
         style="fill:none;stroke:#000000;stroke-opacity:1;stroke-width:1;stroke-linecap:butt;stroke-linejoin:round;stroke-miterlimit:10;stroke-dasharray:none"
         id="path344" /><path
         d="m 382.875,383.32 158.84,0 0,28.52 -158.84,0 0,-28.52 z"
         style="fill:#ffffff;fill-opacity:1;fill-rule:nonzero;stroke:#000000;stroke-opacity:1;stroke-width:1;stroke-linecap:butt;stroke-linejoin:round;stroke-miterlimit:10;stroke-dasharray:none"
         id="path346" /><path
         d="m 392.955,400.12 20.16,0"
         style="fill:none;stroke:#0000ff;stroke-opacity:1;stroke-width:2;stroke-linecap:square;stroke-linejoin:round;stroke-miterlimit:10;stroke-dasharray:none"
         id="path348" /><g
         id="g350"
         transform="translate(428.955,395.08)"><text
           transform="matrix(1,0,0,-1,0,0.203125)"
           id="text352"><tspan
             style="fill:#000000;fill-opacity:1;fill-rule:nonzero;stroke:none;font-family:Cmr10;font-variant:normal;font-weight:normal;font-size:14.4;writing-mode:lr;-inkscape-font-specification:Cmr10"
             x="0 6.38723755 13.9690094 21.95832825"
             y="0"
             sodipodi:role="line"
             id="tspan354">exp[</tspan></text>
<text
           transform="matrix(1,0,0,-1,25.942444,0.203125)"
           id="text356"><tspan
             style="fill:#000000;fill-opacity:1;fill-rule:nonzero;stroke:none;font-family:Cmsy10;font-variant:normal;font-weight:normal;font-size:14.4;writing-mode:lr;-inkscape-font-specification:Cmsy10"
             x="0 11.1794281"
             y="0"
             sodipodi:role="line"
             id="tspan358">−|</tspan></text>
<text
           transform="matrix(1,0,0,-1,41.105988,0.203125)"
           id="text360"><tspan
             style="fill:#000000;fill-opacity:1;fill-rule:nonzero;stroke:none;font-family:Cmr10;font-variant:normal;font-weight:normal;font-size:14.4;writing-mode:lr;-inkscape-font-specification:Cmr10"
             x="0"
             y="0"
             id="tspan362">∆</tspan></text>
<text
           transform="matrix(1,0,0,-1,53.093491,0.203125)"
           id="text364"><tspan
             style="fill:#000000;fill-opacity:1;fill-rule:nonzero;stroke:none;font-family:Cmmi10;font-variant:normal;font-weight:normal;font-size:14.4;writing-mode:lr;-inkscape-font-specification:Cmmi10"
             x="0"
             y="0"
             id="tspan366">t</tspan></text>
<text
           transform="matrix(1,0,0,-1,58.286194,-3.470225)"
           id="text368"><tspan
             style="fill:#000000;fill-opacity:1;fill-rule:nonzero;stroke:none;font-family:Cmmi10;font-variant:normal;font-weight:normal;font-size:10.08;writing-mode:lr;-inkscape-font-specification:Cmmi10"
             x="0 5.06623077 9.74880524 15.06588287"
             y="0"
             sodipodi:role="line"
             id="tspan370">peak</tspan></text>
<text
           transform="matrix(1,0,0,-1,78.590456,0.203125)"
           id="text372"><tspan
             style="fill:#000000;fill-opacity:1;fill-rule:nonzero;stroke:none;font-family:Cmmi10;font-variant:normal;font-weight:normal;font-size:14.4;writing-mode:lr;-inkscape-font-specification:Cmmi10"
             x="0 7.1953125"
             y="0"
             sodipodi:role="line"
             id="tspan374">/τ</tspan></text>
<text
           transform="matrix(1,0,0,-1,92.074632,-3.470225)"
           id="text376"><tspan
             style="fill:#000000;fill-opacity:1;fill-rule:nonzero;stroke:none;font-family:Cmmi10;font-variant:normal;font-weight:normal;font-size:10.08;writing-mode:lr;-inkscape-font-specification:Cmmi10"
             x="0"
             y="0"
             id="tspan378">c</tspan></text>
<text
           transform="matrix(1,0,0,-1,98.29323,0.203125)"
           id="text380"><tspan
             style="fill:#000000;fill-opacity:1;fill-rule:nonzero;stroke:none;font-family:Cmsy10;font-variant:normal;font-weight:normal;font-size:14.4;writing-mode:lr;-inkscape-font-specification:Cmsy10"
             x="0"
             y="0"
             id="tspan382">|</tspan></text>
<text
           transform="matrix(1,0,0,-1,102.27735,0.203125)"
           id="text384"><tspan
             style="fill:#000000;fill-opacity:1;fill-rule:nonzero;stroke:none;font-family:Cmr10;font-variant:normal;font-weight:normal;font-size:14.4;writing-mode:lr;-inkscape-font-specification:Cmr10"
             x="0"
             y="0"
             id="tspan386">]</tspan></text>
</g></g></g></svg>